<svg  fill="none" xmlns="http://www.w3.org/2000/svg">
<g filter="url(#filter0_f_5108_129974)">
<path d="M1113.61 146.011C1366.21 -7.57012 1854.99 328.8 1854.99 328.8C1854.99 328.8 1294.77 206.378 999.729 332.734C745.072 441.795 734.138 831.849 458.431 873.803C38.2106 937.747 -499.994 286.114 -499.994 286.114C-499.994 286.114 125.837 783.928 516.214 640.542C733.016 560.909 905.46 272.564 1113.61 146.011Z" fill="#14CA74"/>
</g>
<g filter="url(#filter1_f_5108_129974)">
<path d="M1013.78 216.349C1266.49 62.9462 1755.03 399.662 1755.03 399.662C1755.03 399.662 1194.9 276.843 899.767 402.991C645.032 511.872 633.822 901.918 358.086 943.677L416.034 710.456C632.893 630.978 805.54 342.755 1013.78 216.349Z" fill="#FFCC68"/>
</g>
<g opacity="0.8" filter="url(#filter2_f_5108_129974)">
<path d="M966.824 356.599C939.334 298.389 733.107 517.822 537.593 606.362C342.079 694.901 73.5558 661.441 101.045 719.651C128.535 777.861 440.115 908.346 635.628 819.806C831.142 731.267 994.313 414.809 966.824 356.599Z" fill="#6C72FF"/>
</g>
<g opacity="0.3" filter="url(#filter3_f_5108_129974)">
<path d="M809.317 547.212C817.017 587.855 1213.65 449.575 1436.19 416.09C1658.73 382.605 1877.57 362.633 1869.87 321.99C1862.17 281.346 1439.97 242.946 1217.43 276.431C994.89 309.915 801.616 506.568 809.317 547.212Z" fill="#14CA74"/>
</g>
<g opacity="0.7" filter="url(#filter4_f_5108_129974)">
<path d="M850.557 545.152C862.457 607.96 1190.86 448.354 1404.72 416.176C1618.58 383.997 1921.07 405.352 1909.17 342.545C1897.27 279.737 1440.22 81.6366 1226.36 113.815C1012.5 145.994 838.658 482.345 850.557 545.152Z" fill="#14CA74"/>
</g>
<g opacity="0.7" filter="url(#filter5_f_5108_129974)">
<path d="M109.451 743.964C87.3643 687.904 265.417 726.455 478.746 647.879C692.076 569.303 871.251 356.161 893.337 412.22C915.423 468.28 729.863 737.113 516.533 815.689C303.204 894.265 131.537 800.024 109.451 743.964Z" fill="#14CA74"/>
</g>
<g filter="url(#filter6_f_5108_129974)">
<path d="M1046.97 303.214C1356.66 156.865 1937.46 334.262 1937.46 334.262C1937.46 334.262 1418.33 362.123 1126.68 496.111C874.946 611.76 830.076 866.297 555.553 915.409C137.139 990.262 -199.352 519.913 -199.352 519.913C-199.352 519.913 205.375 812.838 591.89 659.345C806.548 574.1 838.376 401.787 1046.97 303.214Z" fill="url(#paint0_linear_5108_129974)"/>
</g>
<g opacity="0.8" filter="url(#filter7_f_5108_129974)">
<path d="M1123.18 83.1423C1432.87 -63.2061 1892.35 326.549 1892.35 326.549C1892.35 326.549 1409.15 247.741 1117.49 381.729C865.761 497.378 784.964 858.584 510.442 907.695C92.027 982.549 -462.946 345.136 -462.946 345.136C-462.946 345.136 187.262 856.287 573.777 702.794C788.435 617.549 914.591 181.716 1123.18 83.1423Z" fill="url(#paint1_linear_5108_129974)"/>
</g>
<g filter="url(#filter8_f_5108_129974)">
<path d="M1139.23 129.376C1448.92 -16.972 1892.35 326.549 1892.35 326.549C1892.35 326.549 1329.14 218.74 1037.48 352.729C785.748 468.377 784.964 858.584 510.442 907.695C92.027 982.549 -462.946 345.136 -462.946 345.136C-462.946 345.136 187.262 856.287 573.777 702.794C788.435 617.549 930.635 227.95 1139.23 129.376Z" fill="#D76EE9"/>
</g>
<g filter="url(#filter9_f_5108_129974)">
<path d="M1024.52 281.76C1325.64 118.957 1913.26 265.981 1913.26 265.981C1913.26 265.981 1397.49 321.19 1113.72 470.671C868.788 599.692 761.93 884.712 490.925 948.322C77.8706 1045.27 -432.278 408.532 -432.278 408.532C-432.278 408.532 241.407 886.018 618.694 712.02C828.227 615.388 821.71 391.416 1024.52 281.76Z" fill="url(#paint2_linear_5108_129974)"/>
</g>
<g opacity="0.5" filter="url(#filter10_f_5108_129974)">
<path d="M1016.19 301.952C1317.3 139.148 1904.93 286.173 1904.93 286.173C1904.93 286.173 1389.15 341.382 1105.38 490.863C860.454 619.883 753.597 904.904 482.592 968.514C69.5375 1065.47 -440.612 428.723 -440.612 428.723C-440.612 428.723 233.073 906.21 610.361 732.212C819.894 635.579 813.377 411.608 1016.19 301.952Z" fill="url(#paint3_linear_5108_129974)"/>
</g>
<g filter="url(#filter11_f_5108_129974)">
<path d="M1003.8 294.183C1313.49 147.835 1894.3 325.231 1894.3 325.231C1894.3 325.231 1375.17 353.092 1083.51 487.081C831.779 602.729 786.908 857.267 512.386 906.378C93.9712 981.231 -242.519 510.882 -242.519 510.882C-242.519 510.882 162.208 803.807 548.723 650.314C763.381 565.07 795.208 392.756 1003.8 294.183Z" fill="url(#paint4_linear_5108_129974)"/>
</g>
<g filter="url(#filter12_f_5108_129974)">
<path d="M1928.1 367.951C1928.1 367.951 1415.82 265.946 1117.19 359.64C844.519 445.19 795.136 714.015 513.487 768.085C115.378 844.513 -476.634 373.672 -476.634 373.672" stroke="#327DFF" stroke-width="3.87756"/>
</g>
<g filter="url(#filter13_f_5108_129974)">
<path d="M823.124 690.502C823.124 690.502 612.705 940.808 356.554 889.31C219.593 861.775 20.4032 757.14 20.4032 757.14" stroke="url(#paint5_linear_5108_129974)" stroke-width="6.4626"/>
</g>
<g filter="url(#filter14_f_5108_129974)">
<path d="M1118.74 309.77C1021.39 341.31 907.035 413.879 907.035 413.879C907.035 413.879 1037.96 356.259 1153.72 334.765C1269.48 313.272 1837.3 289.876 1837.3 289.876C1837.3 289.876 1357.08 232.55 1118.74 309.77Z" fill="#6C72FF"/>
</g>
<g filter="url(#filter15_f_5108_129974)">
<path d="M492.04 676.399C312.259 778.324 -26.5993 676.702 -26.5993 676.702C-26.5993 676.702 315.673 790.435 517.633 710.523C661.526 653.587 784.968 490.462 784.968 490.462C784.968 490.462 639.142 593.001 492.04 676.399Z" fill="#327DFF"/>
</g>
<g filter="url(#filter16_f_5108_129974)">
<path d="M167.032 687.048C-38.8453 669.031 -260.297 393.149 -260.297 393.149C-260.297 393.149 -42.9023 680.942 168.756 729.668C319.56 764.384 513.746 700.043 513.746 700.043C513.746 700.043 335.486 701.789 167.032 687.048Z" fill="#6C72FF"/>
</g>
<g filter="url(#filter17_f_5108_129974)">
<path d="M234.279 697.528C10.6177 708.722 -261.867 445.567 -261.867 445.567C-261.867 445.567 7.73597 722.102 241.434 742.998C407.941 757.886 564.325 638.727 564.325 638.727C564.325 638.727 417.284 688.368 234.279 697.528Z" fill="#6C72FF"/>
</g>
<g filter="url(#filter18_f_5108_129974)">
<path d="M255.752 706.568C32.0911 717.762 -240.394 454.607 -240.394 454.607C-240.394 454.607 29.2094 731.142 262.908 752.038C429.414 766.926 585.798 647.767 585.798 647.767C585.798 647.767 438.757 697.408 255.752 706.568Z" fill="#6C72FF"/>
</g>
<g filter="url(#filter19_f_5108_129974)">
<path d="M122.482 681.694C27.4754 668.393 -44.2963 646.869 -44.2963 646.869C-44.2963 646.869 26.4667 667.606 122.482 681.694C233.911 697.294 377.301 701.583 474.343 646.566C621.445 563.168 767.271 460.629 767.271 460.629C767.271 460.629 627.815 605.633 483.922 662.569C376.018 705.265 232.633 697.855 122.482 681.694Z" fill="#FFCC68"/>
</g>
<defs>
<filter id="filter0_f_5108_129974" x="-538.769" y="67.0709" width="2432.54" height="849.924" filterUnits="userSpaceOnUse" color-interpolation-filters="sRGB">
<feFlood flood-opacity="0" result="BackgroundImageFix"/>
<feBlend mode="normal" in="SourceGraphic" in2="BackgroundImageFix" result="shape"/>
<feGaussianBlur stdDeviation="19.3878" result="effect1_foregroundBlur_5108_129974"/>
</filter>
<filter id="filter1_f_5108_129974" x="319.31" y="137.522" width="1474.5" height="844.931" filterUnits="userSpaceOnUse" color-interpolation-filters="sRGB">
<feFlood flood-opacity="0" result="BackgroundImageFix"/>
<feBlend mode="normal" in="SourceGraphic" in2="BackgroundImageFix" result="shape"/>
<feGaussianBlur stdDeviation="19.3878" result="effect1_foregroundBlur_5108_129974"/>
</filter>
<filter id="filter2_f_5108_129974" x="25.4184" y="273.237" width="1018.11" height="650.171" filterUnits="userSpaceOnUse" color-interpolation-filters="sRGB">
<feFlood flood-opacity="0" result="BackgroundImageFix"/>
<feBlend mode="normal" in="SourceGraphic" in2="BackgroundImageFix" result="shape"/>
<feGaussianBlur stdDeviation="36.8368" result="effect1_foregroundBlur_5108_129974"/>
</filter>
<filter id="filter3_f_5108_129974" x="700.094" y="154.658" width="1278.97" height="508.963" filterUnits="userSpaceOnUse" color-interpolation-filters="sRGB">
<feFlood flood-opacity="0" result="BackgroundImageFix"/>
<feBlend mode="normal" in="SourceGraphic" in2="BackgroundImageFix" result="shape"/>
<feGaussianBlur stdDeviation="54.5" result="effect1_foregroundBlur_5108_129974"/>
</filter>
<filter id="filter4_f_5108_129974" x="776.307" y="36.6328" width="1206.88" height="596.694" filterUnits="userSpaceOnUse" color-interpolation-filters="sRGB">
<feFlood flood-opacity="0" result="BackgroundImageFix"/>
<feBlend mode="normal" in="SourceGraphic" in2="BackgroundImageFix" result="shape"/>
<feGaussianBlur stdDeviation="36.8368" result="effect1_foregroundBlur_5108_129974"/>
</filter>
<filter id="filter5_f_5108_129974" x="33.9202" y="329.272" width="934.881" height="590.098" filterUnits="userSpaceOnUse" color-interpolation-filters="sRGB">
<feFlood flood-opacity="0" result="BackgroundImageFix"/>
<feBlend mode="normal" in="SourceGraphic" in2="BackgroundImageFix" result="shape"/>
<feGaussianBlur stdDeviation="36.8368" result="effect1_foregroundBlur_5108_129974"/>
</filter>
<filter id="filter6_f_5108_129974" x="-238.128" y="206.571" width="2214.37" height="755.685" filterUnits="userSpaceOnUse" color-interpolation-filters="sRGB">
<feFlood flood-opacity="0" result="BackgroundImageFix"/>
<feBlend mode="normal" in="SourceGraphic" in2="BackgroundImageFix" result="shape"/>
<feGaussianBlur stdDeviation="19.3878" result="effect1_foregroundBlur_5108_129974"/>
</filter>
<filter id="filter7_f_5108_129974" x="-537.912" y="-24.695" width="2505.23" height="1013.47" filterUnits="userSpaceOnUse" color-interpolation-filters="sRGB">
<feFlood flood-opacity="0" result="BackgroundImageFix"/>
<feBlend mode="normal" in="SourceGraphic" in2="BackgroundImageFix" result="shape"/>
<feGaussianBlur stdDeviation="37.4831" result="effect1_foregroundBlur_5108_129974"/>
</filter>
<filter id="filter8_f_5108_129974" x="-501.722" y="54.3078" width="2432.85" height="898.275" filterUnits="userSpaceOnUse" color-interpolation-filters="sRGB">
<feFlood flood-opacity="0" result="BackgroundImageFix"/>
<feBlend mode="normal" in="SourceGraphic" in2="BackgroundImageFix" result="shape"/>
<feGaussianBlur stdDeviation="19.3878" result="effect1_foregroundBlur_5108_129974"/>
</filter>
<filter id="filter9_f_5108_129974" x="-463.299" y="174.052" width="2407.58" height="815.336" filterUnits="userSpaceOnUse" color-interpolation-filters="sRGB">
<feFlood flood-opacity="0" result="BackgroundImageFix"/>
<feBlend mode="normal" in="SourceGraphic" in2="BackgroundImageFix" result="shape"/>
<feGaussianBlur stdDeviation="15.5102" result="effect1_foregroundBlur_5108_129974"/>
</filter>
<filter id="filter10_f_5108_129974" x="-509.115" y="156.761" width="2482.55" height="890.302" filterUnits="userSpaceOnUse" color-interpolation-filters="sRGB">
<feFlood flood-opacity="0" result="BackgroundImageFix"/>
<feBlend mode="normal" in="SourceGraphic" in2="BackgroundImageFix" result="shape"/>
<feGaussianBlur stdDeviation="34.2518" result="effect1_foregroundBlur_5108_129974"/>
</filter>
<filter id="filter11_f_5108_129974" x="-281.295" y="197.541" width="2214.37" height="755.685" filterUnits="userSpaceOnUse" color-interpolation-filters="sRGB">
<feFlood flood-opacity="0" result="BackgroundImageFix"/>
<feBlend mode="normal" in="SourceGraphic" in2="BackgroundImageFix" result="shape"/>
<feGaussianBlur stdDeviation="19.3878" result="effect1_foregroundBlur_5108_129974"/>
</filter>
<filter id="filter12_f_5108_129974" x="-568.31" y="227.634" width="2587.26" height="641.258" filterUnits="userSpaceOnUse" color-interpolation-filters="sRGB">
<feFlood flood-opacity="0" result="BackgroundImageFix"/>
<feBlend mode="normal" in="SourceGraphic" in2="BackgroundImageFix" result="shape"/>
<feGaussianBlur stdDeviation="45.2382" result="effect1_foregroundBlur_5108_129974"/>
</filter>
<filter id="filter13_f_5108_129974" x="9.85544" y="679.376" width="824.786" height="229.195" filterUnits="userSpaceOnUse" color-interpolation-filters="sRGB">
<feFlood flood-opacity="0" result="BackgroundImageFix"/>
<feBlend mode="normal" in="SourceGraphic" in2="BackgroundImageFix" result="shape"/>
<feGaussianBlur stdDeviation="4.52382" result="effect1_foregroundBlur_5108_129974"/>
</filter>
<filter id="filter14_f_5108_129974" x="850.035" y="212.407" width="1044.27" height="258.471" filterUnits="userSpaceOnUse" color-interpolation-filters="sRGB">
<feFlood flood-opacity="0" result="BackgroundImageFix"/>
<feBlend mode="normal" in="SourceGraphic" in2="BackgroundImageFix" result="shape"/>
<feGaussianBlur stdDeviation="28.5" result="effect1_foregroundBlur_5108_129974"/>
</filter>
<filter id="filter15_f_5108_129974" x="-80.2809" y="436.78" width="918.931" height="355.887" filterUnits="userSpaceOnUse" color-interpolation-filters="sRGB">
<feFlood flood-opacity="0" result="BackgroundImageFix"/>
<feBlend mode="normal" in="SourceGraphic" in2="BackgroundImageFix" result="shape"/>
<feGaussianBlur stdDeviation="26.8408" result="effect1_foregroundBlur_5108_129974"/>
</filter>
<filter id="filter16_f_5108_129974" x="-313.979" y="339.467" width="881.406" height="454.163" filterUnits="userSpaceOnUse" color-interpolation-filters="sRGB">
<feFlood flood-opacity="0" result="BackgroundImageFix"/>
<feBlend mode="normal" in="SourceGraphic" in2="BackgroundImageFix" result="shape"/>
<feGaussianBlur stdDeviation="26.8408" result="effect1_foregroundBlur_5108_129974"/>
</filter>
<filter id="filter17_f_5108_129974" x="-303.867" y="403.567" width="910.192" height="382.718" filterUnits="userSpaceOnUse" color-interpolation-filters="sRGB">
<feFlood flood-opacity="0" result="BackgroundImageFix"/>
<feBlend mode="normal" in="SourceGraphic" in2="BackgroundImageFix" result="shape"/>
<feGaussianBlur stdDeviation="21" result="effect1_foregroundBlur_5108_129974"/>
</filter>
<filter id="filter18_f_5108_129974" x="-282.394" y="412.607" width="910.192" height="382.718" filterUnits="userSpaceOnUse" color-interpolation-filters="sRGB">
<feFlood flood-opacity="0" result="BackgroundImageFix"/>
<feBlend mode="normal" in="SourceGraphic" in2="BackgroundImageFix" result="shape"/>
<feGaussianBlur stdDeviation="21" result="effect1_foregroundBlur_5108_129974"/>
</filter>
<filter id="filter19_f_5108_129974" x="-97.9779" y="406.947" width="918.931" height="341.161" filterUnits="userSpaceOnUse" color-interpolation-filters="sRGB">
<feFlood flood-opacity="0" result="BackgroundImageFix"/>
<feBlend mode="normal" in="SourceGraphic" in2="BackgroundImageFix" result="shape"/>
<feGaussianBlur stdDeviation="26.8408" result="effect1_foregroundBlur_5108_129974"/>
</filter>
<linearGradient id="paint0_linear_5108_129974" x1="667.069" y1="306.237" x2="662.841" y2="461.478" gradientUnits="userSpaceOnUse">
<stop stop-color="#14CA74"/>
<stop offset="1" stop-color="#14CA74" stop-opacity="0"/>
</linearGradient>
<linearGradient id="paint1_linear_5108_129974" x1="1205.4" y1="118.447" x2="558.783" y2="618.361" gradientUnits="userSpaceOnUse">
<stop stop-color="#D76EE9"/>
<stop offset="1" stop-color="#D76EE9" stop-opacity="0"/>
</linearGradient>
<linearGradient id="paint2_linear_5108_129974" x1="152.174" y1="908.12" x2="303.011" y2="658.538" gradientUnits="userSpaceOnUse">
<stop stop-color="#FFCC68"/>
<stop offset="1" stop-color="#FFCC68" stop-opacity="0"/>
</linearGradient>
<linearGradient id="paint3_linear_5108_129974" x1="143.84" y1="928.312" x2="294.678" y2="678.73" gradientUnits="userSpaceOnUse">
<stop stop-color="#FFCC68"/>
<stop offset="1" stop-color="#FFCC68" stop-opacity="0"/>
</linearGradient>
<linearGradient id="paint4_linear_5108_129974" x1="544.448" y1="828.997" x2="464.773" y2="339.33" gradientUnits="userSpaceOnUse">
<stop stop-color="#327DFF"/>
<stop offset="1" stop-color="#327DFF" stop-opacity="0"/>
</linearGradient>
<linearGradient id="paint5_linear_5108_129974" x1="527.593" y1="909.603" x2="499.579" y2="798.945" gradientUnits="userSpaceOnUse">
<stop stop-color="#327DFF"/>
<stop offset="1" stop-color="#327DFF" stop-opacity="0"/>
</linearGradient>
</defs>
</svg>
