<svg  fill="none" xmlns="http://www.w3.org/2000/svg">
<g filter="url(#filter0_f_5102_102383)">
<path d="M244.762 522.771C-49.4059 493.441 -344.813 1008.01 -344.813 1008.01C-344.813 1008.01 107.481 655.502 428.154 641.94C704.935 630.235 883.366 977.257 1150.13 895.937C1556.71 771.993 1760.44 -48.2409 1760.44 -48.2409C1760.44 -48.2409 1411.22 671.15 997.209 710.556C767.284 732.441 487.161 546.939 244.762 522.771Z" fill="#14CA74"/>
</g>
<g opacity="0.8" filter="url(#filter1_f_5102_102383)">
<path d="M468.141 649.241C467.774 584.867 748.581 693.625 963.159 688.973C1177.74 684.321 1405.43 538.098 1405.79 602.472C1406.16 666.845 1181.57 919.172 966.996 923.823C752.419 928.475 468.508 713.615 468.141 649.241Z" fill="#6C72FF"/>
</g>
<g opacity="0.3" filter="url(#filter2_f_5102_102383)">
<path d="M692.558 753.064C703.179 793.043 285.734 839.759 70.5804 905.738C-144.574 971.717 -350.553 1048.28 -361.174 1008.3C-371.795 968.323 -7.65245 751.229 207.502 685.251C422.656 619.272 681.937 713.084 692.558 753.064Z" fill="#14CA74"/>
</g>
<g opacity="0.7" filter="url(#filter3_f_5102_102383)">
<path d="M654.477 769.029C670.89 830.811 305.763 828.807 99.0008 892.213C-107.761 955.618 -371.319 1105.61 -387.732 1043.82C-404.144 982.042 -77.5946 605.872 129.168 542.466C335.93 479.061 638.064 707.247 654.477 769.029Z" fill="#14CA74"/>
</g>
<g opacity="0.7" filter="url(#filter4_f_5102_102383)">
<path d="M1408.72 628.03C1404.41 567.93 1260.51 679.644 1034.17 700.98C807.831 722.317 554.139 607.542 558.449 667.641C562.759 727.74 846.279 889.977 1072.62 868.641C1298.95 847.305 1413.03 688.129 1408.72 628.03Z" fill="#14CA74"/>
</g>
<g filter="url(#filter5_f_5102_102383)">
<path d="M372.797 635.735C30.2743 637.598 -416.825 1048.58 -416.825 1048.58C-416.825 1048.58 63.3604 849.353 384.278 844.137C661.269 839.636 811.738 1049.78 1080.52 975.43C1490.2 862.105 1590.37 292.526 1590.37 292.526C1590.37 292.526 1351.98 731.595 937.092 760.218C706.675 776.115 603.504 634.479 372.797 635.735Z" fill="url(#paint0_linear_5102_102383)"/>
</g>
<g opacity="0.8" filter="url(#filter6_f_5102_102383)">
<path d="M208.958 470.214C-133.565 472.078 -379.478 1022.13 -379.478 1022.13C-379.478 1022.13 22.2111 742.235 343.128 737.019C620.12 732.517 849.085 1023.33 1117.87 948.979C1527.54 835.653 1752.54 20.9958 1752.54 20.9958C1752.54 20.9958 1387.09 762.949 972.203 791.573C741.786 807.469 439.665 468.959 208.958 470.214Z" fill="url(#paint1_linear_5102_102383)"/>
</g>
<g filter="url(#filter7_f_5102_102383)">
<path d="M214.47 518.842C-128.053 520.706 -379.478 1022.13 -379.478 1022.13C-379.478 1022.13 81.8326 681.503 402.75 676.288C679.741 671.786 849.085 1023.33 1117.87 948.979C1527.54 835.653 1752.54 20.9958 1752.54 20.9958C1752.54 20.9958 1387.09 762.949 972.203 791.573C741.786 807.469 445.177 517.587 214.47 518.842Z" fill="#D76EE9"/>
</g>
<g filter="url(#filter8_f_5102_102383)">
<path d="M383.764 606.688C41.8654 590.006 -424.509 976.548 -424.509 976.548C-424.509 976.548 64.47 803.431 384.973 815.593C661.608 826.091 881.149 1036.94 1153.03 977.181C1567.42 886.101 1752.28 91.4189 1752.28 91.4189C1752.28 91.4189 1351.12 813.16 935.685 819.304C704.968 822.716 614.051 617.925 383.764 606.688Z" fill="url(#paint2_linear_5102_102383)"/>
</g>
<g opacity="0.5" filter="url(#filter9_f_5102_102383)">
<path d="M400.005 621.296C58.1065 604.614 -408.268 991.155 -408.268 991.155C-408.268 991.155 80.7111 818.038 401.215 830.201C677.849 840.698 897.39 1051.55 1169.27 991.788C1583.66 900.708 1768.52 106.026 1768.52 106.026C1768.52 106.026 1367.36 827.768 951.926 833.912C721.209 837.324 630.292 632.532 400.005 621.296Z" fill="url(#paint3_linear_5102_102383)"/>
</g>
<g filter="url(#filter10_f_5102_102383)">
<path d="M407.822 608.935C65.2994 610.799 -381.8 1021.78 -381.8 1021.78C-381.8 1021.78 98.3855 822.554 419.303 817.338C696.294 812.836 846.763 1022.98 1115.55 948.631C1525.22 835.305 1625.39 265.726 1625.39 265.726C1625.39 265.726 1387.01 704.796 972.117 733.419C741.7 749.315 638.529 607.68 407.822 608.935Z" fill="url(#paint4_linear_5102_102383)"/>
</g>
<g filter="url(#filter11_f_5102_102383)">
<path d="M-393.823 1074.92C-393.823 1074.92 24.0591 761.537 333.855 716.969C616.721 676.274 777.434 897.356 1054.79 824.395C1446.83 721.266 1777.22 40.8133 1777.22 40.8133" stroke="#327DFF" stroke-width="3.87756"/>
</g>
<g filter="url(#filter12_f_5102_102383)">
<path d="M742.033 888.249C742.033 888.249 1039.96 1023.03 1248.7 865.893C1360.31 781.871 1494.72 601.428 1494.72 601.428" stroke="url(#paint5_linear_5102_102383)" stroke-width="6.4626"/>
</g>
<g filter="url(#filter13_f_5102_102383)">
<path d="M310.908 672.665C412.323 659.037 546.813 675.056 546.813 675.056C546.813 675.056 403.845 679.677 290.162 710.324C176.48 740.971 -345.686 965.27 -345.686 965.27C-345.686 965.27 62.6029 706.032 310.908 672.665Z" fill="#6C72FF"/>
</g>
<g filter="url(#filter14_f_5102_102383)">
<path d="M1034.51 732.445C1240.68 746.664 1502.34 508.576 1502.34 508.576C1502.34 508.576 1242.84 759.061 1026.17 774.278C871.807 785.121 689.989 691.364 689.989 691.364C689.989 691.364 865.809 720.811 1034.51 732.445Z" fill="#327DFF"/>
</g>
<defs>
<filter id="filter0_f_5102_102383" x="-383.588" y="-87.0165" width="2182.81" height="1133.81" filterUnits="userSpaceOnUse" color-interpolation-filters="sRGB">
<feFlood flood-opacity="0" result="BackgroundImageFix"/>
<feBlend mode="normal" in="SourceGraphic" in2="BackgroundImageFix" result="shape"/>
<feGaussianBlur stdDeviation="19.3878" result="effect1_foregroundBlur_5102_102383"/>
</filter>
<filter id="filter1_f_5102_102383" x="394.467" y="512.452" width="1085" height="485.119" filterUnits="userSpaceOnUse" color-interpolation-filters="sRGB">
<feFlood flood-opacity="0" result="BackgroundImageFix"/>
<feBlend mode="normal" in="SourceGraphic" in2="BackgroundImageFix" result="shape"/>
<feGaussianBlur stdDeviation="36.8368" result="effect1_foregroundBlur_5102_102383"/>
</filter>
<filter id="filter2_f_5102_102383" x="-470.401" y="553.387" width="1272.16" height="574.955" filterUnits="userSpaceOnUse" color-interpolation-filters="sRGB">
<feFlood flood-opacity="0" result="BackgroundImageFix"/>
<feBlend mode="normal" in="SourceGraphic" in2="BackgroundImageFix" result="shape"/>
<feGaussianBlur stdDeviation="54.5" result="effect1_foregroundBlur_5102_102383"/>
</filter>
<filter id="filter3_f_5102_102383" x="-462.001" y="457.772" width="1190.69" height="674.351" filterUnits="userSpaceOnUse" color-interpolation-filters="sRGB">
<feFlood flood-opacity="0" result="BackgroundImageFix"/>
<feBlend mode="normal" in="SourceGraphic" in2="BackgroundImageFix" result="shape"/>
<feGaussianBlur stdDeviation="36.8368" result="effect1_foregroundBlur_5102_102383"/>
</filter>
<filter id="filter4_f_5102_102383" x="484.721" y="536.795" width="997.791" height="407.44" filterUnits="userSpaceOnUse" color-interpolation-filters="sRGB">
<feFlood flood-opacity="0" result="BackgroundImageFix"/>
<feBlend mode="normal" in="SourceGraphic" in2="BackgroundImageFix" result="shape"/>
<feGaussianBlur stdDeviation="36.8368" result="effect1_foregroundBlur_5102_102383"/>
</filter>
<filter id="filter5_f_5102_102383" x="-455.601" y="253.75" width="2084.74" height="833.607" filterUnits="userSpaceOnUse" color-interpolation-filters="sRGB">
<feFlood flood-opacity="0" result="BackgroundImageFix"/>
<feBlend mode="normal" in="SourceGraphic" in2="BackgroundImageFix" result="shape"/>
<feGaussianBlur stdDeviation="19.3878" result="effect1_foregroundBlur_5102_102383"/>
</filter>
<filter id="filter6_f_5102_102383" x="-454.444" y="-53.9703" width="2281.95" height="1151.07" filterUnits="userSpaceOnUse" color-interpolation-filters="sRGB">
<feFlood flood-opacity="0" result="BackgroundImageFix"/>
<feBlend mode="normal" in="SourceGraphic" in2="BackgroundImageFix" result="shape"/>
<feGaussianBlur stdDeviation="37.4831" result="effect1_foregroundBlur_5102_102383"/>
</filter>
<filter id="filter7_f_5102_102383" x="-418.253" y="-17.7798" width="2209.57" height="1078.69" filterUnits="userSpaceOnUse" color-interpolation-filters="sRGB">
<feFlood flood-opacity="0" result="BackgroundImageFix"/>
<feBlend mode="normal" in="SourceGraphic" in2="BackgroundImageFix" result="shape"/>
<feGaussianBlur stdDeviation="19.3878" result="effect1_foregroundBlur_5102_102383"/>
</filter>
<filter id="filter8_f_5102_102383" x="-455.53" y="60.3984" width="2238.83" height="958.448" filterUnits="userSpaceOnUse" color-interpolation-filters="sRGB">
<feFlood flood-opacity="0" result="BackgroundImageFix"/>
<feBlend mode="normal" in="SourceGraphic" in2="BackgroundImageFix" result="shape"/>
<feGaussianBlur stdDeviation="15.5102" result="effect1_foregroundBlur_5102_102383"/>
</filter>
<filter id="filter9_f_5102_102383" x="-476.772" y="37.5227" width="2313.8" height="1033.41" filterUnits="userSpaceOnUse" color-interpolation-filters="sRGB">
<feFlood flood-opacity="0" result="BackgroundImageFix"/>
<feBlend mode="normal" in="SourceGraphic" in2="BackgroundImageFix" result="shape"/>
<feGaussianBlur stdDeviation="34.2518" result="effect1_foregroundBlur_5102_102383"/>
</filter>
<filter id="filter10_f_5102_102383" x="-420.576" y="226.951" width="2084.74" height="833.607" filterUnits="userSpaceOnUse" color-interpolation-filters="sRGB">
<feFlood flood-opacity="0" result="BackgroundImageFix"/>
<feBlend mode="normal" in="SourceGraphic" in2="BackgroundImageFix" result="shape"/>
<feGaussianBlur stdDeviation="19.3878" result="effect1_foregroundBlur_5102_102383"/>
</filter>
<filter id="filter11_f_5102_102383" x="-485.458" y="-50.5035" width="2354.89" height="1217.44" filterUnits="userSpaceOnUse" color-interpolation-filters="sRGB">
<feFlood flood-opacity="0" result="BackgroundImageFix"/>
<feBlend mode="normal" in="SourceGraphic" in2="BackgroundImageFix" result="shape"/>
<feGaussianBlur stdDeviation="45.2382" result="effect1_foregroundBlur_5102_102383"/>
</filter>
<filter id="filter12_f_5102_102383" x="731.658" y="590.451" width="774.697" height="363.868" filterUnits="userSpaceOnUse" color-interpolation-filters="sRGB">
<feFlood flood-opacity="0" result="BackgroundImageFix"/>
<feBlend mode="normal" in="SourceGraphic" in2="BackgroundImageFix" result="shape"/>
<feGaussianBlur stdDeviation="4.52382" result="effect1_foregroundBlur_5102_102383"/>
</filter>
<filter id="filter13_f_5102_102383" x="-402.686" y="610.171" width="1006.5" height="412.098" filterUnits="userSpaceOnUse" color-interpolation-filters="sRGB">
<feFlood flood-opacity="0" result="BackgroundImageFix"/>
<feBlend mode="normal" in="SourceGraphic" in2="BackgroundImageFix" result="shape"/>
<feGaussianBlur stdDeviation="28.5" result="effect1_foregroundBlur_5102_102383"/>
</filter>
<filter id="filter14_f_5102_102383" x="636.308" y="454.894" width="919.715" height="373.938" filterUnits="userSpaceOnUse" color-interpolation-filters="sRGB">
<feFlood flood-opacity="0" result="BackgroundImageFix"/>
<feBlend mode="normal" in="SourceGraphic" in2="BackgroundImageFix" result="shape"/>
<feGaussianBlur stdDeviation="26.8408" result="effect1_foregroundBlur_5102_102383"/>
</filter>
<linearGradient id="paint0_linear_5102_102383" x1="716.692" y1="474.279" x2="787.596" y2="612.446" gradientUnits="userSpaceOnUse">
<stop stop-color="#14CA74"/>
<stop offset="1" stop-color="#14CA74" stop-opacity="0"/>
</linearGradient>
<linearGradient id="paint1_linear_5102_102383" x1="150.07" y1="537.586" x2="949.235" y2="708.951" gradientUnits="userSpaceOnUse">
<stop stop-color="#D76EE9"/>
<stop offset="1" stop-color="#D76EE9" stop-opacity="0"/>
</linearGradient>
<linearGradient id="paint2_linear_5102_102383" x1="1441.14" y1="794.528" x2="1197.25" y2="634.645" gradientUnits="userSpaceOnUse">
<stop stop-color="#FFCC68"/>
<stop offset="1" stop-color="#FFCC68" stop-opacity="0"/>
</linearGradient>
<linearGradient id="paint3_linear_5102_102383" x1="1457.38" y1="809.135" x2="1213.49" y2="649.252" gradientUnits="userSpaceOnUse">
<stop stop-color="#FFCC68"/>
<stop offset="1" stop-color="#FFCC68" stop-opacity="0"/>
</linearGradient>
<linearGradient id="paint4_linear_5102_102383" x1="1053.19" y1="892.706" x2="913.423" y2="416.695" gradientUnits="userSpaceOnUse">
<stop stop-color="#327DFF"/>
<stop offset="1" stop-color="#327DFF" stop-opacity="0"/>
</linearGradient>
<linearGradient id="paint5_linear_5102_102383" x1="1103.23" y1="958.111" x2="1080.67" y2="846.214" gradientUnits="userSpaceOnUse">
<stop stop-color="#327DFF"/>
<stop offset="1" stop-color="#327DFF" stop-opacity="0"/>
</linearGradient>
</defs>
</svg>
